<svg xmlns="http://www.w3.org/2000/svg" width="1024" height="1024" viewBox="0 0 1024 1024" version="1.1"><path d="M 586.750 104.723 C 588.538 104.945, 591.462 104.945, 593.250 104.723 C 595.038 104.502, 593.575 104.320, 590 104.320 C 586.425 104.320, 584.962 104.502, 586.750 104.723 M 638.768 104.725 C 640.565 104.947, 643.265 104.943, 644.768 104.715 C 646.271 104.486, 644.800 104.304, 641.500 104.310 C 638.200 104.315, 636.971 104.502, 638.768 104.725 M 585.750 127.723 C 587.538 127.945, 590.462 127.945, 592.250 127.723 C 594.038 127.502, 592.575 127.320, 589 127.320 C 585.425 127.320, 583.962 127.502, 585.750 127.723 M 635.750 127.723 C 637.538 127.945, 640.462 127.945, 642.250 127.723 C 644.038 127.502, 642.575 127.320, 639 127.320 C 635.425 127.320, 633.962 127.502, 635.750 127.723 M 791.469 216.250 L 785.500 222.500 791.750 216.531 C 795.188 213.249, 798 210.436, 798 210.281 C 798 209.542, 797.013 210.444, 791.469 216.250 M 874.500 232 C 881.634 239.150, 887.696 245, 887.971 245 C 888.246 245, 882.634 239.150, 875.500 232 C 868.366 224.850, 862.304 219, 862.029 219 C 861.754 219, 867.366 224.850, 874.500 232 M 787 236.500 C 782.903 240.625, 779.775 244, 780.050 244 C 780.325 244, 783.903 240.625, 788 236.500 C 792.097 232.375, 795.225 229, 794.950 229 C 794.675 229, 791.097 232.375, 787 236.500 M 854.750 242.723 C 856.538 242.945, 859.462 242.945, 861.250 242.723 C 863.038 242.502, 861.575 242.320, 858 242.320 C 854.425 242.320, 852.962 242.502, 854.750 242.723 M 131.978 277.750 L 123.500 286.500 132.250 278.022 C 140.377 270.148, 141.456 269, 140.728 269 C 140.578 269, 136.641 272.938, 131.978 277.750 M 911.500 282 C 914.766 285.300, 917.662 288, 917.937 288 C 918.212 288, 915.766 285.300, 912.500 282 C 909.234 278.700, 906.338 276, 906.063 276 C 905.788 276, 908.234 278.700, 911.500 282 M 284.966 284.750 L 279.500 290.500 285.250 285.034 C 290.592 279.956, 291.458 279, 290.716 279 C 290.560 279, 287.972 281.587, 284.966 284.750 M 146.966 294.750 L 141.500 300.500 147.250 295.034 C 152.592 289.956, 153.458 289, 152.716 289 C 152.560 289, 149.972 291.587, 146.966 294.750 M 532 301.500 C 535.543 305.075, 538.667 308, 538.942 308 C 539.217 308, 536.543 305.075, 533 301.500 C 529.457 297.925, 526.333 295, 526.058 295 C 525.783 295, 528.457 297.925, 532 301.500 M 109 368.500 C 104.903 372.625, 101.775 376, 102.050 376 C 102.325 376, 105.903 372.625, 110 368.500 C 114.097 364.375, 117.225 361, 116.950 361 C 116.675 361, 113.097 364.375, 109 368.500 M 724.328 384.500 C 724.333 388.350, 724.513 389.802, 724.730 387.728 C 724.946 385.653, 724.943 382.503, 724.722 380.728 C 724.501 378.952, 724.324 380.650, 724.328 384.500 M 780.328 386.500 C 780.333 390.350, 780.513 391.802, 780.730 389.728 C 780.946 387.653, 780.943 384.503, 780.722 382.728 C 780.501 380.952, 780.324 382.650, 780.328 386.500 M 837.382 397.500 C 837.384 404.100, 837.546 406.670, 837.741 403.211 C 837.937 399.752, 837.936 394.352, 837.738 391.211 C 837.540 388.070, 837.380 390.900, 837.382 397.500 M 953.310 417.500 C 953.315 420.800, 953.502 422.029, 953.725 420.232 C 953.947 418.435, 953.943 415.735, 953.715 414.232 C 953.486 412.729, 953.304 414.200, 953.310 417.500 M 1000.374 471.500 C 1000.376 477.550, 1000.541 479.896, 1000.740 476.713 C 1000.939 473.531, 1000.937 468.581, 1000.736 465.713 C 1000.535 462.846, 1000.372 465.450, 1000.374 471.500 M 232.336 491 C 232.336 495.125, 232.513 496.813, 232.728 494.750 C 232.944 492.688, 232.944 489.313, 232.728 487.250 C 232.513 485.188, 232.336 486.875, 232.336 491 M 606.420 504.500 C 606.419 515.500, 606.565 520.136, 606.745 514.803 C 606.924 509.470, 606.925 500.470, 606.746 494.803 C 606.568 489.136, 606.421 493.500, 606.420 504.500 M 1000.336 495 C 1000.336 499.125, 1000.513 500.813, 1000.728 498.750 C 1000.944 496.688, 1000.944 493.313, 1000.728 491.250 C 1000.513 489.188, 1000.336 490.875, 1000.336 495 M 914.750 512.723 C 916.538 512.945, 919.462 512.945, 921.250 512.723 C 923.038 512.502, 921.575 512.320, 918 512.320 C 914.425 512.320, 912.962 512.502, 914.750 512.723 M 22.423 538.500 C 22.424 550.050, 22.570 554.638, 22.747 548.696 C 22.924 542.753, 22.923 533.303, 22.745 527.696 C 22.567 522.088, 22.422 526.950, 22.423 538.500 M 232.310 523.500 C 232.315 526.800, 232.502 528.029, 232.725 526.232 C 232.947 524.435, 232.943 521.735, 232.715 520.232 C 232.486 518.729, 232.304 520.200, 232.310 523.500 M 906.776 595.733 C 909.128 595.945, 912.728 595.942, 914.776 595.727 C 916.824 595.512, 914.900 595.339, 910.500 595.343 C 906.100 595.346, 904.424 595.522, 906.776 595.733 M 527.473 715.250 L 520.500 722.500 527.750 715.527 C 534.484 709.050, 535.457 708, 534.723 708 C 534.571 708, 531.308 711.263, 527.473 715.250 M 284.500 724 C 288.874 728.400, 292.678 732, 292.953 732 C 293.228 732, 289.874 728.400, 285.500 724 C 281.126 719.600, 277.322 716, 277.047 716 C 276.772 716, 280.126 719.600, 284.500 724 M 870.966 752.750 L 865.500 758.500 871.250 753.034 C 876.592 747.956, 877.458 747, 876.716 747 C 876.560 747, 873.972 749.587, 870.966 752.750 M 422.280 761.736 C 424.909 761.943, 428.959 761.940, 431.280 761.731 C 433.601 761.521, 431.450 761.352, 426.500 761.355 C 421.550 761.358, 419.651 761.530, 422.280 761.736 M 880.479 770.250 L 871.500 779.500 880.750 770.521 C 889.341 762.181, 890.455 761, 889.729 761 C 889.580 761, 885.418 765.163, 880.479 770.250 M 218.750 785.740 C 222.188 785.936, 227.813 785.936, 231.250 785.740 C 234.688 785.545, 231.875 785.385, 225 785.385 C 218.125 785.385, 215.313 785.545, 218.750 785.740 M 125 792.500 C 128.543 796.075, 131.667 799, 131.942 799 C 132.217 799, 129.543 796.075, 126 792.500 C 122.457 788.925, 119.333 786, 119.058 786 C 118.783 786, 121.457 788.925, 125 792.500 M 236.768 806.725 C 238.565 806.947, 241.265 806.943, 242.768 806.715 C 244.271 806.486, 242.800 806.304, 239.500 806.310 C 236.200 806.315, 234.971 806.502, 236.768 806.725 M 351.768 861.725 C 353.565 861.947, 356.265 861.943, 357.768 861.715 C 359.271 861.486, 357.800 861.304, 354.500 861.310 C 351.200 861.315, 349.971 861.502, 351.768 861.725 M 393.728 863.722 C 395.503 863.943, 398.653 863.946, 400.728 863.730 C 402.802 863.513, 401.350 863.333, 397.500 863.328 C 393.650 863.324, 391.952 863.501, 393.728 863.722 M 459.728 866.722 C 461.503 866.943, 464.653 866.946, 466.728 866.730 C 468.802 866.513, 467.350 866.333, 463.500 866.328 C 459.650 866.324, 457.952 866.501, 459.728 866.722 M 484.768 867.725 C 486.565 867.947, 489.265 867.943, 490.768 867.715 C 492.271 867.486, 490.800 867.304, 487.500 867.310 C 484.200 867.315, 482.971 867.502, 484.768 867.725 M 506.768 868.725 C 508.565 868.947, 511.265 868.943, 512.768 868.715 C 514.271 868.486, 512.800 868.304, 509.500 868.310 C 506.200 868.315, 504.971 868.502, 506.768 868.725 M 530.750 869.723 C 532.538 869.945, 535.462 869.945, 537.250 869.723 C 539.038 869.502, 537.575 869.320, 534 869.320 C 530.425 869.320, 528.962 869.502, 530.750 869.723 M 579.250 871.735 C 581.862 871.941, 586.138 871.941, 588.750 871.735 C 591.362 871.529, 589.225 871.360, 584 871.360 C 578.775 871.360, 576.638 871.529, 579.250 871.735 M 639.768 871.725 C 641.565 871.947, 644.265 871.943, 645.768 871.715 C 647.271 871.486, 645.800 871.304, 642.500 871.310 C 639.200 871.315, 637.971 871.502, 639.768 871.725 M 432.768 889.725 C 434.565 889.947, 437.265 889.943, 438.768 889.715 C 440.271 889.486, 438.800 889.304, 435.500 889.310 C 432.200 889.315, 430.971 889.502, 432.768 889.725 M 474.250 891.728 C 476.313 891.944, 479.688 891.944, 481.750 891.728 C 483.813 891.513, 482.125 891.336, 478 891.336 C 473.875 891.336, 472.188 891.513, 474.250 891.728 M 498.750 892.732 C 501.087 892.943, 504.913 892.943, 507.250 892.732 C 509.587 892.522, 507.675 892.349, 503 892.349 C 498.325 892.349, 496.413 892.522, 498.750 892.732 M 535.250 893.742 C 538.962 893.934, 545.038 893.934, 548.750 893.742 C 552.462 893.549, 549.425 893.392, 542 893.392 C 534.575 893.392, 531.538 893.549, 535.250 893.742 M 605.789 893.741 C 609.248 893.937, 614.648 893.936, 617.789 893.738 C 620.930 893.540, 618.100 893.380, 611.500 893.382 C 604.900 893.384, 602.330 893.546, 605.789 893.741" stroke="none" fill="#272728" fill-rule="evenodd"/><path d="M 589.500 104.682 C 553.482 106.177, 508.224 113.906, 467 125.603 C 434.385 134.856, 326.819 169.770, 285 184.675 C 240.293 200.610, 206.115 218.293, 174 242.105 C 99.563 297.297, 45.672 382.236, 29.092 470.500 C 24.202 496.534, 23.520 504.964, 23.516 539.500 C 23.511 574.771, 24.195 582.779, 29.585 610.500 C 39.530 661.657, 62.465 713.240, 94.054 755.500 C 126.173 798.470, 171.747 836.586, 218.500 859.581 C 236.085 868.230, 259.256 876.149, 273.500 878.376 C 290.598 881.051, 417.541 888.826, 498 892.128 C 535.583 893.670, 621.052 893.674, 641 892.135 C 691.346 888.250, 721.067 878.330, 777 846.743 C 872.818 792.631, 933.207 725.317, 970.997 630.500 C 981.712 603.614, 990.151 573.392, 995.050 544.352 C 999.155 520.021, 1000.147 507.690, 1000.104 481.500 C 1000.042 443.108, 996.988 418.537, 987.924 383.500 C 984.150 368.910, 983.125 365.709, 977.515 351 C 946.906 270.736, 885.619 201.166, 802.298 152.100 C 739.933 115.376, 675.861 101.098, 589.500 104.682 M 600 126.645 C 560.726 127.929, 519.478 134.774, 473.500 147.638 C 442.133 156.414, 335.254 191.489, 290.572 207.671 C 226.114 231.015, 187.223 254.743, 146.620 295.500 C 134.021 308.147, 114.579 329.989, 111.576 334.870 C 111.113 335.623, 113.287 334.160, 116.408 331.618 C 142.080 310.708, 179.263 291.862, 235.074 271.472 C 272.805 257.687, 337.228 237.391, 360.100 232.084 C 407.238 221.145, 448.220 225.557, 488.905 245.953 C 536.939 270.031, 574.050 311.580, 599.702 370 C 652.766 490.846, 629.089 640.976, 543.321 727.500 C 517.635 753.412, 490.420 769.612, 458.500 777.991 C 442.353 782.229, 426.858 784.477, 368.500 791.047 C 363 791.666, 343.425 794.147, 325 796.561 C 276.236 802.951, 259.032 804.958, 245 805.898 C 207.581 808.403, 175.490 802.214, 152.057 787.972 C 147.900 785.446, 143.150 782.565, 141.500 781.569 C 137.847 779.365, 148.890 789.556, 157.370 796.216 C 184.772 817.734, 198.823 826.930, 222.158 838.617 C 246.378 850.746, 263.468 856.083, 284 857.927 C 297.213 859.114, 416.681 864.830, 505 868.500 C 525.075 869.334, 550.971 870.463, 562.546 871.008 C 594.168 872.498, 642.027 872.248, 658 870.509 C 689.961 867.029, 718.396 857.208, 755.156 836.952 C 783.912 821.106, 803.633 806.348, 824.076 785.376 C 854.182 754.491, 876.133 718.489, 896.003 667.411 L 900.706 655.321 891.944 654.154 C 864.144 650.453, 837.721 635.792, 811.686 609.624 C 763.435 561.124, 733.209 491.733, 725.921 412.730 C 724.451 396.800, 725.275 359.678, 727.434 344.500 C 732.648 307.852, 743.862 275.531, 759.677 251.577 C 764.708 243.957, 770.165 237.721, 782.061 226 C 790.713 217.475, 798.737 208.925, 799.892 207 C 804.321 199.620, 802.161 192.128, 792.776 182.326 C 779.727 168.695, 754.020 154.246, 721 141.982 C 704.152 135.725, 668.951 129.095, 644.500 127.575 C 631.627 126.774, 609.917 126.321, 600 126.645 M 799.679 173.027 C 809.656 182.846, 812.374 188.270, 812.445 198.500 C 812.527 210.392, 810.643 213.541, 792.998 231 C 784.938 238.975, 776.026 248.650, 773.193 252.500 C 756.699 274.917, 744.197 307.844, 739.400 341.500 C 736.952 358.680, 736.425 401.890, 738.431 421 C 743.307 467.448, 759.782 516.532, 783.109 554.105 C 805.425 590.050, 833.535 618.161, 860.500 631.498 C 874.986 638.663, 883.688 641.031, 898.025 641.710 C 907.722 642.169, 910.890 641.917, 917.990 640.122 C 928.213 637.537, 937.040 633.521, 944.172 628.211 C 951.653 622.643, 953.434 620.463, 957.013 612.500 C 960.786 604.102, 969.231 579.194, 968.772 577.816 C 968.593 577.278, 966.393 579.482, 963.884 582.714 C 955.968 592.907, 939.783 603.386, 927.217 606.454 C 904.404 612.023, 881.136 606.065, 857.536 588.611 C 821.636 562.060, 791.582 513.172, 778.072 459.348 C 767.368 416.706, 766.104 377.835, 774.111 337.500 C 780.482 305.404, 792.120 281.101, 809.212 264.204 C 817.223 256.284, 819.879 254.264, 827.500 250.293 C 835.513 246.118, 843.806 243.945, 854.152 243.311 C 866.258 242.570, 875.586 244.583, 887.835 250.583 C 892.601 252.917, 896.654 254.675, 896.841 254.489 C 897.623 253.714, 854.592 211.695, 844 202.891 C 827.245 188.963, 795.622 166, 793.197 166 C 792.836 166, 795.753 169.162, 799.679 173.027 M 394 248.677 C 361.538 253.927, 331.913 270.112, 305.284 297.145 C 266.356 336.662, 242.535 391.600, 234.313 460.822 C 232.127 479.226, 231.836 531.672, 233.826 548.500 C 242.399 620.991, 264.961 673.638, 303.317 710.652 C 317.748 724.580, 330.031 733.288, 347.500 741.978 C 363.717 750.046, 380.688 755.909, 397 759.079 C 412.126 762.019, 435.295 762.294, 448.500 759.691 C 493.847 750.753, 533.630 719.148, 564.099 667.856 C 590.566 623.302, 605.040 571.007, 606.684 514 C 609.348 421.635, 574.044 333.036, 516 286.415 C 491.498 266.735, 460.961 253.227, 431.500 249.035 C 424.787 248.080, 399.200 247.836, 394 248.677 M 848.076 256.513 C 818.814 261.853, 794.537 293.618, 785.592 338.270 C 781.877 356.817, 780.687 368.821, 780.713 387.500 C 780.773 430.773, 789.496 468.969, 807.950 506.755 C 819.561 530.530, 830.674 546.681, 846.892 563.346 C 876.811 594.091, 908.368 603.414, 936.740 589.889 C 946.935 585.029, 960.101 571.435, 966.171 559.500 C 973.280 545.524, 976.550 535.098, 979.660 516.500 C 982.273 500.875, 982.291 454.407, 979.692 435 C 975.954 407.096, 969.820 382.351, 961.349 361 C 947.923 327.162, 924.444 291.363, 905.226 275.427 C 886.543 259.935, 866.208 253.205, 848.076 256.513 M 278 280.905 C 202.288 306.264, 162.299 325.035, 129 350.845 C 110.790 364.959, 90.756 387.298, 78.325 407.349 C 57.088 441.604, 45 488.503, 45 536.637 C 45 599.277, 62.871 660.741, 95.260 709.500 C 110.248 732.063, 130.643 753.166, 148.414 764.500 C 172.106 779.609, 200.643 786.892, 231 785.577 C 246.587 784.901, 246.753 784.886, 269.942 781.905 C 282.065 780.347, 322.739 773.766, 347.774 769.313 C 352.638 768.448, 352.498 767.458, 347.230 765.480 C 314.547 753.209, 278.950 723.031, 256.454 688.525 C 233.522 653.350, 219.125 609.470, 212.808 555.500 C 210.212 533.319, 209.659 480.809, 211.823 462 C 220.451 387.027, 245.809 325.957, 285.026 285.705 C 289.959 280.642, 293.996 276.387, 293.997 276.250 C 294.004 275.647, 291.670 276.326, 278 280.905 M 885.719 318.117 C 877.716 318.971, 868.438 323.064, 862.213 328.486 C 853.474 336.097, 845.055 351.477, 840.858 367.500 C 838.728 375.632, 838.502 378.575, 838.526 398 C 838.548 416.572, 838.861 420.913, 840.821 429.880 C 851.132 477.037, 875.534 512.735, 904.296 522.738 C 910.346 524.842, 912.773 525.160, 920.099 524.810 C 927.393 524.461, 929.834 523.868, 935.627 521.036 C 958.385 509.913, 972.342 479.386, 972.220 441 C 972.040 384.376, 943.061 331.287, 906.174 320.008 C 898.597 317.691, 893.836 317.251, 885.719 318.117 M 883.734 331.025 C 869.440 334.631, 858.838 347.320, 852.391 368.537 C 849.837 376.943, 849.665 378.713, 849.617 397 C 849.579 411.588, 849.999 418.658, 851.281 425.067 C 861.211 474.682, 890.336 513, 918.118 513 C 926.339 513, 933.657 509.525, 941.120 502.075 C 949.071 494.139, 954.090 484.795, 957.777 471.070 C 960.124 462.332, 960.351 459.760, 960.387 441.500 C 960.420 424.401, 960.104 420.050, 958.203 411.500 C 952.228 384.626, 941.029 361.544, 926.974 347.135 C 919.990 339.976, 912.617 334.969, 905.484 332.543 C 899.409 330.477, 888.835 329.739, 883.734 331.025 M 898.051 352.175 C 893.803 356.735, 894.205 360.335, 900.259 371.966 C 905.649 382.322, 910 394.389, 910 398.983 C 910 400.997, 910.355 401.179, 913.177 400.615 C 914.924 400.265, 916.564 399.770, 916.820 399.513 C 917.076 399.257, 916.771 396.487, 916.143 393.357 C 915.514 390.227, 915 382.583, 915 376.371 C 915 367.344, 914.578 363.948, 912.900 359.462 C 909.709 350.932, 902.503 347.396, 898.051 352.175 M 881.256 361.047 C 877.005 361.961, 875.522 363.289, 873.050 368.397 C 870.158 374.370, 870.305 382.965, 873.413 389.640 C 878.253 400.036, 889.392 408.972, 897.534 408.991 C 900.960 408.999, 901.836 408.548, 903.338 406.005 C 904.901 403.359, 904.982 402.104, 904.031 395.270 C 902.937 387.405, 899.856 380.129, 892.452 367.926 C 888.652 361.664, 885.991 360.029, 881.256 361.047 M 922.540 361.956 C 919.895 364.878, 918.337 378.499, 919.722 386.584 C 921.023 394.180, 924.391 401.604, 927.224 403.120 C 930.399 404.819, 933.825 402.649, 936.106 397.494 C 939.100 390.726, 939.502 384.356, 937.504 375.375 C 936.043 368.808, 935.141 366.906, 931.996 363.761 C 927.794 359.559, 925.164 359.057, 922.540 361.956 M 941.563 398.263 C 940.748 399.508, 939.577 402.872, 938.962 405.739 C 937.467 412.714, 939.651 420.688, 944.079 424.413 C 950.074 429.457, 953 427.107, 953 417.247 C 953 409.821, 950.734 402.084, 947.555 398.653 C 944.550 395.412, 943.477 395.342, 941.563 398.263 M 871.326 406.484 C 863.069 412.267, 869.621 439, 879.295 439 C 880.079 439, 883.954 436.365, 887.904 433.145 C 894.728 427.584, 901.886 424.194, 904.021 425.513 C 905.096 426.177, 905.318 425.045, 905.006 420.500 C 904.645 415.250, 903.381 414, 898.433 414 C 893.134 414, 888.889 412.381, 882.996 408.112 C 878.296 404.707, 874.599 404.192, 871.326 406.484 M 913.656 406.133 C 909.728 408.416, 907.652 418.508, 910.122 423.316 C 912.071 427.109, 916.295 431, 918.465 431 C 921.971 431, 924.690 428.289, 925.866 423.619 C 928.696 412.381, 921.251 401.718, 913.656 406.133 M 931.093 408.921 C 929.902 409.675, 929.885 410.746, 930.980 415.906 C 932.300 422.124, 932.595 422.544, 934.705 421.203 C 935.927 420.427, 935.891 418.515, 934.531 411.750 C 933.737 407.797, 933.359 407.487, 931.093 408.921 M 931.526 429.950 C 928.570 435.666, 930.317 447.646, 935.714 458.669 C 941.691 470.875, 949.703 471.267, 951.908 459.462 C 954.451 445.850, 945.475 427, 936.449 427 C 933.698 427, 932.761 427.562, 931.526 429.950 M 896.227 433.116 C 887.953 437.212, 881.212 449.192, 882.543 457.438 C 884.598 470.166, 896.390 481.073, 903.805 477.104 C 910.375 473.588, 915.330 452.821, 912.692 439.862 C 911.701 434.995, 907.608 431, 903.614 431.001 C 901.901 431.001, 898.577 431.953, 896.227 433.116 M 920.188 435.714 C 918.022 436.127, 917.916 436.482, 918.518 441.328 C 918.923 444.584, 918.545 449.834, 917.498 455.500 C 916.583 460.450, 915.595 466.574, 915.303 469.109 C 913.916 481.159, 925.544 488.731, 931.493 479.651 C 934.725 474.718, 934.483 470.832, 930.118 457.620 C 927.848 450.751, 925.881 442.854, 925.746 440.072 C 925.489 434.788, 925.400 434.719, 920.188 435.714 M 939 645.491 C 933.395 648.482, 921.719 652.678, 916.778 653.478 C 913.461 654.015, 912.939 654.511, 911.990 658.038 C 909.515 667.227, 899.967 690.795, 891.494 708.627 C 882.415 727.734, 868.927 749.887, 855.345 768 C 853.902 769.925, 858.752 765.425, 866.123 758 C 889.656 734.295, 917.768 694.131, 938.215 655 C 942.317 647.149, 944.258 642.934, 943.719 643.045 C 943.598 643.070, 941.475 644.171, 939 645.491" stroke="none" fill="#040404" fill-rule="evenodd"/></svg>