<?xml version="1.0" standalone="no"?>
<!DOCTYPE svg PUBLIC "-//W3C//DTD SVG 20010904//EN"
 "http://www.w3.org/TR/2001/REC-SVG-20010904/DTD/svg10.dtd">
<svg version="1.0" xmlns="http://www.w3.org/2000/svg"
 width="1024.000000pt" height="1024.000000pt" viewBox="0 0 1024.000000 1024.000000"
 preserveAspectRatio="xMidYMid meet">

<g transform="translate(0.000000,1024.000000) scale(0.100000,-0.100000)"
fill="#000000" stroke="none">
<path d="M5035 8789 c-182 -22 -386 -85 -486 -151 -109 -73 -237 -221 -371
-431 -327 -511 -390 -595 -505 -684 -299 -230 -402 -323 -556 -502 -478 -555
-729 -1196 -763 -1951 -32 -721 220 -1490 675 -2060 237 -297 669 -667 971
-832 92 -51 273 -90 600 -130 171 -21 944 -17 1135 6 278 33 594 133 661 208
l19 21 -80 -7 c-44 -4 -129 -11 -190 -16 -187 -17 -1135 -24 -1385 -11 -371
19 -636 54 -699 94 -147 90 -493 429 -650 635 -185 245 -343 525 -435 775 -71
192 -140 494 -172 752 -21 173 -24 573 -5 720 43 335 163 737 311 1040 201
413 525 812 926 1137 206 168 258 230 459 544 177 277 248 376 330 459 87 88
146 119 230 119 170 -1 318 -158 592 -626 l71 -123 84 -18 c117 -26 249 -70
422 -138 82 -33 151 -57 154 -55 3 3 -22 34 -54 69 -69 73 -212 285 -346 512
-240 406 -415 580 -631 630 -86 19 -217 25 -312 14z m-1714 -1829 c23 -13 25
-59 5 -99 -8 -15 -35 -46 -60 -69 -66 -61 -120 -69 -143 -21 -26 54 21 139
100 178 47 23 69 26 98 11z m-363 -566 c52 -36 10 -158 -76 -218 -44 -30 -59
-32 -90 -10 -62 43 10 200 108 237 25 9 35 8 58 -9z m-201 -646 c19 -16 16
-84 -7 -127 -10 -22 -39 -55 -62 -75 -36 -31 -49 -36 -83 -34 -78 6 -84 86
-12 179 54 70 121 93 164 57z"/>
<path d="M4870 7759 c-146 -15 -272 -44 -345 -80 -66 -32 -104 -64 -225 -193
-36 -38 -130 -123 -210 -189 -399 -331 -729 -748 -904 -1145 -135 -305 -223
-606 -261 -899 -20 -153 -20 -562 0 -743 43 -383 149 -743 306 -1040 66 -123
218 -352 321 -482 104 -132 344 -372 475 -476 128 -101 139 -104 588 -134 270
-18 1175 -16 1230 3 48 17 71 48 173 229 90 160 96 194 45 240 -34 31 -43 34
-231 80 -284 69 -495 192 -722 419 -239 240 -393 524 -481 886 -74 306 -79
701 -13 1030 43 215 165 508 291 700 244 371 587 619 993 719 158 40 190 65
190 157 0 37 -12 69 -60 162 -204 396 -420 675 -576 744 -33 14 -75 18 -264
19 -124 1 -268 -2 -320 -7z"/>
<path d="M5776 7628 c5 -7 38 -53 75 -103 83 -113 143 -210 249 -400 164 -296
215 -345 532 -506 214 -108 333 -193 484 -343 144 -145 244 -283 332 -461 297
-599 294 -1385 -9 -1994 -117 -236 -252 -415 -424 -565 -138 -119 -233 -176
-509 -307 -178 -83 -223 -130 -370 -377 -59 -101 -105 -186 -102 -189 16 -16
442 33 541 62 71 20 284 191 466 374 224 225 384 453 543 771 152 305 236 589
282 955 25 192 25 590 1 762 -73 514 -279 995 -597 1393 -102 127 -314 341
-430 433 -258 206 -569 365 -925 473 -119 37 -151 41 -139 22z"/>
<path d="M6039 6570 c-89 -10 -214 -41 -306 -76 -466 -175 -832 -620 -978
-1188 -122 -477 -71 -1014 139 -1441 79 -160 161 -277 290 -412 266 -279 581
-423 924 -423 300 0 570 108 835 336 265 226 480 619 561 1024 92 459 37 938
-155 1340 -158 330 -378 564 -664 707 -211 106 -446 154 -646 133z m296 -315
c234 -68 422 -198 573 -398 172 -227 274 -477 318 -777 23 -159 15 -450 -15
-604 -98 -488 -364 -863 -736 -1037 -146 -68 -215 -82 -415 -83 -192 -1 -251
10 -402 74 -221 94 -456 320 -580 558 -310 594 -252 1337 145 1845 188 241
424 390 700 443 111 21 300 12 412 -21z"/>
<path d="M5998 6110 c-108 -17 -184 -41 -283 -90 -328 -162 -569 -511 -647
-940 -30 -165 -30 -433 1 -579 31 -149 74 -273 130 -385 243 -477 694 -699
1125 -555 376 126 631 465 733 974 27 140 25 465 -5 602 -108 498 -386 849
-754 953 -84 24 -218 33 -300 20z m-50 -370 c39 -24 52 -54 52 -123 0 -99
-103 -269 -246 -407 -124 -119 -221 -156 -295 -113 -40 24 -53 62 -47 142 8
110 80 241 202 370 130 135 249 182 334 131z"/>
</g>
</svg>
