<svg xmlns="http://www.w3.org/2000/svg" width="518" height="518" viewBox="0 0 518 518" version="1.1"><path d="M 399.667 80.667 C 399.300 81.033, 399 82.678, 399 84.322 L 399 87.311 401.282 84.656 C 402.537 83.195, 404.224 81.968, 405.032 81.930 C 405.969 81.885, 405.777 81.549, 404.500 81 C 401.980 79.917, 400.517 79.816, 399.667 80.667 M 415 92.444 C 415 94.762, 415.848 96.806, 417.592 98.694 L 420.183 101.500 417.998 98.215 C 415.216 94.031, 415.975 91.541, 419.759 92.436 C 422.400 93.061, 422.381 93.010, 419.226 91.042 C 414.993 88.402, 415 88.400, 415 92.444 M 422 98.500 C 424.267 100.913, 428 101.923, 428 100.122 C 428 99.640, 427.212 98.627, 426.250 97.872 C 424.664 96.629, 424.629 96.664, 425.872 98.250 C 427.057 99.761, 427.024 100, 425.631 100 C 424.743 100, 423.455 99.100, 422.768 98 C 422.081 96.900, 421.099 96, 420.585 96 C 420.072 96, 420.708 97.125, 422 98.500 M 432.070 103.167 C 432.032 104.083, 431.460 105.013, 430.801 105.233 C 430.042 105.486, 430.214 105.868, 431.269 106.273 C 433.371 107.079, 433.980 106.072, 432.945 103.500 C 432.310 101.921, 432.126 101.851, 432.070 103.167 M 408.652 107.291 C 407.895 109.101, 404.947 112.533, 402.099 114.917 C 343.753 163.767, 386.102 328.655, 458.301 333.743 C 464.943 334.211, 466.005 334.531, 465.449 335.896 C 465.090 336.778, 463.690 340.425, 462.337 344 C 455.435 362.244, 442.528 385.099, 431.279 399 L 426.828 404.500 431.486 399.500 C 442.067 388.140, 452.930 369.815, 462.596 347.016 L 467.890 334.531 472.195 333.424 C 483.938 330.404, 503 312.596, 503 304.644 C 503 304.040, 501.312 306.402, 499.250 309.893 C 475.035 350.877, 423.010 332.913, 395.774 274.163 C 368.042 214.342, 370.402 150.727, 401.506 119.674 C 409.414 111.778, 411 109.677, 411 107.097 C 411 103.129, 410.369 103.182, 408.652 107.291 M 445 109.355 C 445 109.676, 448.488 112.265, 452.750 115.108 C 457.012 117.951, 461.611 121.228, 462.970 122.389 C 464.860 124.004, 465.107 124.068, 464.022 122.660 C 461.951 119.970, 445 108.114, 445 109.355 M 190.500 115.855 C 171.039 120.266, 97.206 142.239, 75.927 149.953 C 34.068 165.128, 6.876 209.777, 4.443 267.330 C 3.764 283.398, 4.790 305.308, 5.950 299.500 C 6.420 297.146, 6.828 298.331, 7.847 305 C 8.561 309.675, 9.737 314.419, 10.459 315.542 C 11.182 316.665, 11.983 318.465, 12.239 319.542 C 12.495 320.619, 12.577 315.425, 12.421 308 C 12.265 300.575, 12.349 295.850, 12.609 297.500 C 14.381 308.778, 17.727 323.241, 20.938 333.500 C 27.828 355.511, 28.040 358.013, 22 346 C 17.592 337.233, 16.302 335.770, 18.518 342.051 C 23.311 355.635, 38.369 377.001, 50.362 387.232 L 56.500 392.469 49.824 385.294 C 11.168 343.749, 6.710 252.494, 40.879 202.179 C 54.343 182.351, 71.888 170.059, 99 161.457 C 115.980 156.069, 120.933 154.191, 126.735 150.936 C 134.199 146.749, 136.077 147.065, 131.810 151.789 C 109.819 176.130, 93.687 238.168, 96.590 287.230 C 97.869 308.835, 97.350 311.114, 92.047 307.193 C 90.416 305.987, 88.181 305, 87.080 305 C 85.979 305, 84.499 304.282, 83.789 303.405 C 81.483 300.551, 78.296 297.536, 75.758 295.807 C 74.084 294.665, 73.062 292.790, 72.625 290.057 C 72.029 286.328, 68 283.665, 68 287 C 68 287.550, 68.477 288, 69.059 288 C 69.641 288, 69.840 288.450, 69.500 289 C 69.160 289.550, 69.471 290.007, 70.191 290.015 C 71.142 290.026, 71.090 290.296, 70 291 C 68.755 291.805, 68.840 291.977, 70.500 292.016 C 72.453 292.062, 72.455 292.098, 70.603 293.500 C 68.371 295.189, 67 294.623, 67 292.012 C 67 290.984, 66.296 289.439, 65.436 288.579 C 64.576 287.719, 64.126 286.605, 64.436 286.103 C 65.007 285.180, 54.978 279, 52.910 279 C 52.293 279, 50.452 277.875, 48.818 276.500 C 47.184 275.125, 45.206 274, 44.423 274 C 43.640 274, 43 273.630, 43 273.178 C 43 268.259, 31.306 266.024, 29.403 270.578 C 14.891 305.311, 40.871 366.921, 79.708 389.875 C 93.762 398.182, 100.091 398.856, 137.303 396.008 C 150.360 395.008, 152.690 395.069, 157.053 396.518 C 160.866 397.784, 163.823 400, 161.700 400 C 161.535 400, 153.696 401.120, 144.279 402.488 C 97.025 409.355, 86.156 409.125, 70.250 400.921 C 60.954 396.127, 61.087 396.599, 70.750 402.703 C 79.712 408.365, 84.818 410.727, 92.212 412.631 L 97.500 413.993 92.147 413.448 C 61.516 410.332, 28.640 377.621, 14.422 336.112 C 12.611 330.825, 11.100 327.005, 11.065 327.622 C 11.029 328.240, 12.095 332.100, 13.434 336.202 C 31.510 391.574, 74.788 438.679, 112.500 444.027 C 116.350 444.572, 121.750 445.643, 124.500 446.405 C 127.250 447.168, 132.200 448.317, 135.500 448.959 C 152.651 452.298, 156.919 453.054, 161.500 453.562 C 164.250 453.867, 169.425 454.752, 173 455.529 C 211.205 463.830, 311.727 464.427, 342.850 456.538 C 348.357 455.142, 353.812 454, 354.973 454 C 356.134 454, 357.964 453.180, 359.040 452.178 C 360.932 450.414, 360.769 450.413, 353.975 452.138 C 343.283 454.854, 319.130 456.352, 298.500 455.580 C 279.985 454.887, 277.307 454.767, 256 453.682 C 222.648 451.983, 213.236 451.615, 210.135 451.887 C 208.283 452.050, 207.020 451.777, 207.327 451.280 C 207.639 450.775, 205.159 450.440, 201.692 450.520 C 198.287 450.598, 194.150 450.316, 192.500 449.892 C 190.850 449.469, 182.300 448.385, 173.500 447.483 C 157.221 445.814, 150.432 444.887, 141.500 443.113 C 138.750 442.566, 134.758 442.092, 132.630 442.060 C 130.208 442.022, 127.134 440.971, 124.416 439.250 C 119.824 436.342, 118.532 433, 122 433 C 123.333 433, 124 432.333, 124 431 C 124 429.667, 124.667 429, 126 429 C 127.333 429, 128 428.333, 128 427 C 128 425.900, 128.450 425, 129 425 C 129.550 425, 130 424.100, 130 423 C 130 421.817, 130.667 421, 131.633 421 C 135.038 421, 138.304 415.404, 135.250 414.802 C 134.287 414.612, 139.575 413.416, 147 412.143 C 176.633 407.064, 188.543 404.750, 189.450 403.895 C 189.973 403.403, 191.605 403, 193.078 403 C 194.550 403, 196.315 402.325, 197 401.500 C 197.685 400.675, 198.752 400.014, 199.372 400.032 C 199.993 400.049, 199.600 400.746, 198.500 401.580 C 191.988 406.517, 239.715 395.623, 252.500 389.254 C 371.186 330.126, 316.138 87.381, 190.500 115.855 M 202 120.936 C 159.577 126.974, 127.428 162.657, 115.855 216.551 C 111.496 236.852, 113.566 284.781, 119.096 291.592 C 119.584 292.193, 119.776 292.891, 119.523 293.144 C 118.993 293.674, 122.562 302.529, 125.797 308.710 C 127.009 311.026, 128 313.786, 128 314.844 C 128 315.901, 128.859 316.991, 129.910 317.266 C 130.960 317.541, 133.548 320.503, 135.660 323.850 C 137.772 327.196, 140.063 329.949, 140.750 329.967 C 141.438 329.985, 142 330.420, 142 330.933 C 142 331.446, 142.907 332.153, 144.015 332.505 C 145.123 332.856, 145.761 333.577, 145.434 334.107 C 145.107 334.636, 150.388 341.113, 157.169 348.499 C 172.393 365.080, 174.231 367.365, 177.105 373.279 C 178.366 375.876, 180.010 378, 180.758 378 C 181.506 378, 181.844 378.443, 181.509 378.985 C 180.997 379.813, 189.250 384.273, 196.500 387.085 C 253.829 409.322, 315.167 340.684, 314.980 254.506 C 314.809 175.442, 261.538 112.463, 202 120.936 M 433.500 124.983 C 372.605 140.785, 395.338 294.757, 461.051 311.591 C 483.306 317.293, 510.665 290.953, 509.945 264.520 C 509.915 263.409, 509.011 265.875, 507.937 270 C 488.556 344.446, 413.985 306.862, 400.459 215.831 C 389.916 144.876, 431.436 102.788, 473.340 141.952 C 479.490 147.701, 480.591 148.461, 477.958 145.141 C 466.586 130.805, 446.377 121.642, 433.500 124.983 M 144 132.373 C 136.573 134.585, 134.305 135.593, 136.250 135.816 C 138.982 136.131, 139.574 137.434, 139.170 142.250 C 139.090 143.213, 139.420 144, 139.905 144 C 141.619 144, 142.026 147.312, 140.583 149.514 C 139.530 151.121, 138.432 151.614, 136.661 151.275 C 130.385 150.076, 107.665 195.585, 108.092 208.500 C 108.170 210.861, 108.126 210.974, 111.495 199.647 C 112.943 194.778, 114.288 190.955, 114.485 191.151 C 114.681 191.348, 113.733 195.332, 112.378 200.004 C 111.013 204.714, 110.170 209.614, 110.488 211 C 110.946 213, 110.838 213.200, 109.946 212 C 109.077 210.830, 108.957 211.227, 109.401 213.800 C 109.714 215.615, 109.584 216.861, 109.112 216.569 C 108.640 216.277, 108.290 217.943, 108.335 220.269 C 108.380 222.596, 108.103 228.100, 107.719 232.500 C 107.104 239.546, 107.243 239.128, 108.883 229 C 115.701 186.901, 135.049 149.991, 158.772 133.828 C 166.166 128.791, 158.549 128.041, 144 132.373 M 129.250 138.689 C 130.213 138.941, 131.787 138.941, 132.750 138.689 C 133.713 138.438, 132.925 138.232, 131 138.232 C 129.075 138.232, 128.287 138.438, 129.250 138.689 M 120 140.232 C 110.132 143.129, 107.712 143.984, 110.500 143.589 C 115.581 142.868, 122.451 140.934, 123.450 139.943 C 123.973 139.424, 124.198 139.046, 123.950 139.102 C 123.703 139.158, 121.925 139.667, 120 140.232 M 108.131 151.544 C 103.528 152.848, 95.540 155.321, 90.379 157.040 C 79.417 160.692, 76.310 160.519, 84.003 156.686 C 86.967 155.209, 88.768 154, 88.005 154 C 87.067 154, 87.246 153.512, 88.559 152.494 C 90.403 151.064, 90.375 151.031, 88 151.848 C 86.625 152.320, 84.150 153.002, 82.500 153.362 L 79.500 154.016 82 152.439 C 83.375 151.572, 83.825 151.052, 83 151.285 C 39.451 163.578, 9.302 212.419, 8.482 272 C 8.217 291.276, 8.291 292.696, 8.994 281.909 C 11.834 238.350, 22.034 211.913, 46.204 185.468 C 60.121 170.240, 74.012 163.043, 111.500 151.638 C 121.790 148.507, 119.118 148.433, 108.131 151.544 M 455.914 163.956 C 441.906 168.201, 434.104 191.218, 438.376 215.695 C 448.748 275.122, 498.390 286.725, 499.578 230 L 499.840 217.500 499.015 228.060 C 496.259 263.356, 478.512 274.042, 457.414 253.112 C 425.996 221.944, 438.358 151.944, 472.355 168.507 L 477.500 171.013 474.500 168.491 C 469.558 164.335, 461.306 162.321, 455.914 163.956 M 124.344 170.247 C 120.433 176.443, 116.680 185.022, 117.534 185.814 C 117.941 186.191, 118.472 185.946, 118.714 185.270 C 118.956 184.593, 121.129 179.981, 123.544 175.020 C 128.296 165.255, 128.586 163.527, 124.344 170.247 M 464.980 180.038 C 463.605 182.607, 464.368 185.058, 467.443 187.947 C 470.527 190.843, 472 189.890, 472 184.998 C 472 179.352, 467.172 175.941, 464.980 180.038 M 458.750 183.745 C 455.678 184.450, 457.542 192, 460.788 192 C 463.302 192, 467.713 196.848, 468.522 200.500 C 469.742 206.013, 470.129 207, 471.067 207 C 471.580 207, 471.997 205.537, 471.994 203.750 C 471.978 194.412, 464.103 182.517, 458.750 183.745 M 473.915 185.677 C 471.490 191.954, 472.238 204.793, 475.134 206.583 C 476.845 207.640, 477.104 206.420, 476.111 201.997 C 475.057 197.307, 476.021 193.313, 478.698 191.278 C 479.977 190.305, 480.114 189.389, 479.367 186.785 C 478.141 182.511, 475.357 181.945, 473.915 185.677 M 481.335 188.116 C 481.686 189.427, 481.979 190.838, 481.986 191.250 C 481.994 191.662, 482.480 192, 483.066 192 C 484.626 192, 483.749 186.736, 482.098 186.193 C 481.053 185.850, 480.859 186.339, 481.335 188.116 M 452.748 187.585 C 451.962 188.371, 453.972 194, 455.039 194 C 456.514 194, 457.081 192.172, 456.422 189.546 C 455.825 187.168, 454.091 186.242, 452.748 187.585 M 477.607 194.582 C 476.174 198.317, 477.709 205, 480 205 C 481.859 205, 483.146 200.823, 482.487 196.925 C 481.788 192.783, 478.840 191.368, 477.607 194.582 M 459 196.923 C 459 200.111, 463.275 206, 465.589 206 C 467.497 206, 467.430 200.732, 465.474 196.950 C 463.306 192.758, 459 192.740, 459 196.923 M 483.736 198.354 C 484.309 203.431, 482.752 207, 479.965 207 C 477.620 207, 477.288 210.164, 479.445 211.954 C 484.191 215.893, 488.983 208.039, 487.572 198.635 C 486.578 192.001, 482.991 191.738, 483.736 198.354 M 452.655 195.678 C 449.077 199.256, 460.077 214.290, 465.915 213.801 C 470.935 213.380, 471.435 207.713, 466.500 207.170 C 462.564 206.737, 459.240 203.534, 457.825 198.810 C 456.751 195.226, 454.482 193.851, 452.655 195.678 M 488.770 206.599 C 486.954 209.659, 487.109 213.706, 489.169 217 L 491.359 220.500 492.305 217.317 C 493.612 212.920, 490.543 203.612, 488.770 206.599 M 472.213 210.659 C 471.231 213.858, 471.355 214.690, 473.203 217.286 L 475.317 220.254 477.037 216.928 C 478.698 213.716, 478.684 213.489, 476.629 210.313 C 473.940 206.160, 473.585 206.188, 472.213 210.659 M 452.408 211.566 C 449.811 217.780, 456.092 225.483, 458.839 219.453 C 460.506 215.795, 460.282 213.629, 457.927 210.635 C 455.179 207.141, 454.187 207.308, 452.408 211.566 M 479.503 215.991 C 478.658 218.653, 479.405 219.631, 482.800 220.310 C 485.595 220.869, 488.412 225.317, 489.203 230.417 C 489.877 234.765, 492 233.172, 491.981 228.333 C 491.943 218.720, 481.816 208.703, 479.503 215.991 M 459.974 221.051 C 456.122 228.682, 456.400 235, 460.588 235 C 462.769 235, 463 234.582, 463 230.635 C 463 225.643, 465.958 221, 469.139 221 C 473.307 221, 471.106 215.550, 466.794 215.192 C 463.167 214.891, 463.020 215.018, 459.974 221.051 M 477.451 221.080 C 476.556 222.527, 477.838 233.805, 479.198 236.451 C 481.614 241.153, 485.089 244.903, 486.521 244.354 C 488.887 243.446, 488.501 236.364, 486.050 235.723 C 483.257 234.993, 480.008 229.128, 480.004 224.809 C 480 221.027, 478.677 219.095, 477.451 221.080 M 472.554 225.514 C 473.386 231.058, 471.631 235.809, 468.283 237.082 C 464.734 238.432, 465.269 245.500, 468.921 245.500 C 473.839 245.500, 477.335 233.923, 475.375 224.125 C 474.318 218.840, 471.744 220.108, 472.554 225.514 M 481.485 223.024 C 479.773 225.794, 483.424 234, 486.368 234 C 488.020 234, 488.173 233.484, 487.596 229.875 C 486.514 223.110, 483.512 219.745, 481.485 223.024 M 466.245 224.250 C 463.198 228.058, 463.739 236, 467.044 236 C 469.609 236, 471 233.033, 471 227.566 C 471 222.822, 468.681 221.205, 466.245 224.250 M 489.448 235.274 C 488.652 237.348, 489.218 240.050, 490.500 240.303 C 491.894 240.578, 492.400 236, 491.117 234.717 C 490.382 233.982, 489.880 234.149, 489.448 235.274 M 460.746 238.250 C 460.076 240.241, 461.114 243, 462.533 243 C 464.101 243, 464.840 241.138, 464.221 238.750 C 463.698 236.734, 461.369 236.399, 460.746 238.250 M 475.526 240.950 C 473.563 244.746, 473.638 245.986, 476.005 248.826 C 479.538 253.064, 483.636 245.427, 480.444 240.555 C 478.288 237.265, 477.395 237.336, 475.526 240.950 M 511.272 249 C 511.272 251.475, 511.467 252.488, 511.706 251.250 C 511.944 250.012, 511.944 247.988, 511.706 246.750 C 511.467 245.512, 511.272 246.525, 511.272 249 M 510.232 259 C 510.232 260.925, 510.438 261.712, 510.689 260.750 C 510.941 259.788, 510.941 258.212, 510.689 257.250 C 510.438 256.288, 510.232 257.075, 510.232 259 M 75.103 285.661 C 76.176 285.948, 76.558 286.863, 76.259 288.428 C 76.013 289.714, 76.259 291.042, 76.807 291.381 C 77.401 291.748, 77.762 290.585, 77.703 288.498 C 77.621 285.629, 77.235 285.021, 75.552 285.116 C 74.092 285.199, 73.962 285.356, 75.103 285.661 M 110.084 289.500 C 109.811 296.216, 117.047 319.016, 123.642 332.225 C 127.269 339.489, 127.580 340.477, 125.917 339.449 C 125.322 339.081, 125.559 340.179, 126.443 341.890 C 128.199 345.285, 129.261 346.028, 128.387 343.250 C 127.917 341.756, 128.068 341.784, 129.418 343.441 C 131.309 345.761, 131.498 347.424, 129.750 346.352 C 129.023 345.906, 129.179 346.614, 130.122 348.043 C 131.014 349.394, 132.184 350.500, 132.723 350.500 C 134.125 350.500, 144.135 363.973, 143.498 365.003 C 143.206 365.475, 143.432 366.149, 144 366.500 C 144.568 366.851, 144.811 367.496, 144.541 367.934 C 143.901 368.968, 156.421 381, 158.137 381 C 158.857 381, 156.308 377.769, 152.473 373.821 L 145.500 366.642 152.500 372.929 C 156.350 376.387, 162.565 381.500, 166.312 384.292 C 171.148 387.895, 173.287 390.184, 173.687 392.183 C 174.218 394.838, 174.544 394.998, 179.375 394.967 C 185.431 394.927, 184.825 394.151, 173.954 388.017 C 145.308 371.854, 121.775 337.191, 112.501 297.500 C 111.216 292, 110.128 288.400, 110.084 289.500 M 62 291.382 C 62 294.301, 63.693 295.707, 65.287 294.113 C 66.104 293.296, 66.081 293, 65.200 293 C 64.540 293, 64 292.352, 64 291.559 C 64 290.766, 63.550 289.840, 63 289.500 C 62.435 289.151, 62 289.970, 62 291.382 M 56.751 292.524 C 56.485 293.912, 56.658 295.289, 57.134 295.583 C 57.610 295.877, 58 295.656, 58 295.090 C 58 294.525, 58.690 294.328, 59.533 294.651 C 60.846 295.155, 60.895 294.863, 59.873 292.620 C 58.370 289.323, 57.369 289.292, 56.751 292.524 M 53.015 293.191 C 53.007 294.671, 53.450 296.160, 54 296.500 C 55.277 297.289, 55.277 293.976, 54 292 C 53.242 290.827, 53.027 291.086, 53.015 293.191 M 47 292.331 C 47 293.558, 49.357 298, 50.008 298 C 50.386 298, 50.714 296.538, 50.737 294.750 C 50.760 292.962, 50.560 292.081, 50.292 292.792 C 49.918 293.784, 49.480 293.813, 48.403 292.919 C 47.631 292.279, 47 292.014, 47 292.331 M 42.035 295.691 C 42.016 296.896, 42.480 298.179, 43.067 298.541 C 44.791 299.607, 44.934 298.673, 43.454 295.998 C 42.120 293.589, 42.070 293.578, 42.035 295.691 M 36.557 297.250 C 37.508 300.344, 37.847 300.568, 39.267 299.037 C 40.246 297.981, 40.242 297.852, 39.250 298.412 C 38.488 298.843, 38 298.522, 38 297.590 C 38 296.576, 38.560 296.277, 39.664 296.701 C 40.783 297.131, 41.091 296.957, 40.605 296.170 C 39.180 293.864, 35.794 294.767, 36.557 297.250 M 7.084 310.303 C 6.976 312.618, 10.067 326.267, 10.582 325.751 C 10.797 325.537, 10.116 321.567, 9.070 316.931 C 8.024 312.294, 7.131 309.311, 7.084 310.303 M 119.071 331.500 C 119.071 332.050, 119.714 333.625, 120.500 335 C 121.286 336.375, 121.929 337.050, 121.929 336.500 C 121.929 335.950, 121.286 334.375, 120.500 333 C 119.714 331.625, 119.071 330.950, 119.071 331.500 M 124 342 C 125.122 344.200, 126.266 346, 126.541 346 C 126.816 346, 126.122 344.200, 125 342 C 123.878 339.800, 122.734 338, 122.459 338 C 122.184 338, 122.878 339.800, 124 342 M 139.186 374.166 C 144.570 383.859, 155.436 391.977, 165 393.452 C 167.475 393.834, 170.400 394.360, 171.500 394.621 C 172.600 394.883, 170.377 393.397, 166.560 391.319 C 162.562 389.142, 155.782 383.930, 150.563 379.020 C 145.582 374.334, 142.123 371.288, 142.876 372.250 C 144.772 374.674, 142.725 374.459, 140.500 372 C 137.445 368.625, 136.747 369.775, 139.186 374.166 M 161.500 402.075 C 157.740 402.819, 157.816 402.849, 162.780 402.577 C 165.684 402.418, 168.302 402.680, 168.599 403.160 C 169.236 404.191, 171 403.295, 171 401.941 C 171 400.868, 167.339 400.920, 161.500 402.075 M 172.016 404.057 C 170.099 405.126, 167.887 406, 167.099 406 C 166.311 406, 165.900 406.233, 166.184 406.518 C 166.852 407.186, 180.693 404.284, 182.853 403.023 C 186.211 401.062, 175.566 402.078, 172.016 404.057 M 133.500 406.572 C 126.350 407.830, 114.650 409.436, 107.500 410.141 C 93.041 411.566, 93.966 412.773, 109.500 412.750 C 114.996 412.742, 117.137 412.494, 115 412.113 C 112.129 411.601, 113.567 411.160, 123 409.658 C 136.754 407.467, 152.506 404.187, 149 404.244 C 147.625 404.266, 140.650 405.313, 133.500 406.572 M 418.477 413.250 L 410.500 421.500 418.750 413.523 C 423.288 409.136, 427 405.424, 427 405.273 C 427 404.544, 425.885 405.588, 418.477 413.250 M 127.083 415.358 C 127.313 415.556, 129.300 415.993, 131.500 416.330 C 134.224 416.748, 135.021 416.638, 134 415.987 C 132.634 415.116, 126.113 414.523, 127.083 415.358 M 121.250 416.689 C 122.213 416.941, 123.787 416.941, 124.750 416.689 C 125.713 416.438, 124.925 416.232, 123 416.232 C 121.075 416.232, 120.287 416.438, 121.250 416.689 M 97.250 417.689 C 98.213 417.941, 99.787 417.941, 100.750 417.689 C 101.713 417.438, 100.925 417.232, 99 417.232 C 97.075 417.232, 96.287 417.438, 97.250 417.689 M 108.768 417.725 C 110.565 417.947, 113.265 417.943, 114.768 417.715 C 116.271 417.486, 114.800 417.304, 111.500 417.310 C 108.200 417.315, 106.971 417.502, 108.768 417.725" stroke="none" fill="#898a85" fill-rule="evenodd"/></svg>