<?xml version="1.0" standalone="no"?>
<!DOCTYPE svg PUBLIC "-//W3C//DTD SVG 20010904//EN"
 "http://www.w3.org/TR/2001/REC-SVG-20010904/DTD/svg10.dtd">
<svg version="1.0" xmlns="http://www.w3.org/2000/svg"
 width="200.000000pt" height="200.000000pt" viewBox="0 0 200.000000 200.000000"
 preserveAspectRatio="xMidYMid meet">

<g transform="translate(0.000000,200.000000) scale(0.100000,-0.100000)"
fill="#000000" stroke="none">
<path d="M955 1838 c-67 -23 -105 -85 -105 -171 0 -85 -37 -134 -197 -258
-137 -106 -205 -184 -258 -294 -135 -274 -84 -582 129 -790 159 -154 392 -224
605 -181 245 50 434 213 518 448 23 65 26 88 27 213 0 126 -3 148 -26 216 -56
159 -132 257 -303 389 -164 128 -188 159 -198 268 -10 95 -38 138 -106 161
-40 13 -46 13 -86 -1z m180 -543 c88 -23 152 -62 231 -140 81 -81 118 -149
141 -264 50 -241 -99 -489 -344 -572 -94 -33 -231 -33 -324 -1 -161 55 -277
171 -330 329 -30 92 -30 222 0 312 56 163 192 290 358 336 66 18 197 18 268 0z"/>
<path d="M903 1235 c-177 -38 -314 -184 -345 -365 -23 -134 19 -266 117 -369
63 -66 126 -104 210 -126 163 -42 326 5 442 127 240 254 110 660 -236 734 -80
17 -107 16 -188 -1z m198 -240 c104 -37 162 -153 128 -256 -18 -53 -58 -99
-103 -120 -34 -15 -66 -19 -183 -19 -115 0 -143 3 -143 14 0 7 9 16 20 19 19
5 20 14 20 171 0 159 -1 166 -20 166 -13 0 -20 7 -20 20 0 19 7 20 129 20 90
0 141 -5 172 -15z"/>
<path d="M920 805 l0 -125 69 0 c87 0 115 11 142 52 15 25 19 45 16 81 -7 80
-60 117 -167 117 l-60 0 0 -125z"/>
</g>
</svg>
